<?xml version="1.0" encoding="UTF-8" standalone="no"?>
<!-- Created with Inkscape (http://www.inkscape.org/) -->

<svg
   width="177.93666mm"
   height="177.93666mm"
   viewBox="0 0 177.93666 177.93666"
   version="1.1"
   id="svg5"
   xml:space="preserve"
   xmlns:inkscape="http://www.inkscape.org/namespaces/inkscape"
   xmlns:sodipodi="http://sodipodi.sourceforge.net/DTD/sodipodi-0.dtd"
   xmlns="http://www.w3.org/2000/svg"
   xmlns:svg="http://www.w3.org/2000/svg"><sodipodi:namedview
     id="namedview7"
     pagecolor="#ffffff"
     bordercolor="#666666"
     borderopacity="1.0"
     inkscape:showpageshadow="2"
     inkscape:pageopacity="0.0"
     inkscape:pagecheckerboard="0"
     inkscape:deskcolor="#d1d1d1"
     inkscape:document-units="mm"
     showgrid="false" /><defs
     id="defs2" /><g
     inkscape:label="Layer 1"
     inkscape:groupmode="layer"
     id="layer1"
     transform="translate(-9.8413041,-73.221533)"><path
       style="fill:#272a31;fill-opacity:1;stroke-width:0.0434416"
       d="M 9.8413038,240.03714 V 228.9161 H 20.962344 32.083385 V 217.79506 206.67402 H 20.962344 9.8413038 V 195.55298 184.43194 H 20.962344 32.083385 V 173.31089 162.18985 H 20.962344 9.8413038 V 151.06881 139.94777 H 20.962344 32.083385 V 128.82673 117.70569 H 20.962344 9.8413038 V 106.58465 95.463615 H 20.962344 32.083385 v -11.12104 -11.12104 h 11.121037 11.121051 v 11.12104 11.12104 H 65.44651 76.56755 v -11.12104 -11.12104 h 11.12104 11.12104 v 11.12104 11.12104 h 11.12104 11.12104 v -11.12104 -11.12104 h 11.12104 11.12105 v 11.12104 11.12104 h 11.12104 11.12104 v -11.12104 -11.12104 h 11.12104 11.12104 v 11.12104 11.12104 h -11.12104 -11.12104 v 11.121035 11.12104 h 11.12104 11.12104 v 11.12104 11.12104 h -11.12104 -11.12104 v 11.12104 11.12104 h 11.12104 11.12104 v 11.12104 11.12105 h -11.12104 -11.12104 v 11.12104 11.12104 h 11.12104 11.12104 v 11.12104 11.12104 h -11.12104 -11.12104 v 11.12104 11.12104 H 154.41484 143.2938 V 240.03714 228.9161 h -11.12105 -11.12104 v 11.12104 11.12104 H 109.93067 98.80963 V 240.03714 228.9161 H 87.68859 76.56755 v 11.12104 11.12104 H 65.44651 54.325473 V 240.03714 228.9161 H 43.204422 32.083385 v 11.12104 11.12104 H 20.962344 9.8413038 Z M 76.56755,217.79506 v -11.12104 h 11.12104 11.12104 v 11.12104 11.12104 h 11.12104 11.12104 v -11.12104 -11.12104 h 11.12104 11.12105 v 11.12104 11.12104 h 11.12104 11.12104 V 217.79506 206.67402 H 154.41484 143.2938 v -11.12104 -11.12104 h 11.12104 11.12104 V 173.31089 162.18985 H 154.41484 143.2938 v -11.12104 -11.12104 h 11.12104 11.12104 V 128.82673 117.70569 H 154.41484 143.2938 V 106.58465 95.463615 h -11.12105 -11.12104 v 11.121035 11.12104 H 109.93067 98.80963 V 106.58465 95.463615 H 87.68859 76.56755 v 11.121035 11.12104 H 65.44651 54.325473 V 106.58465 95.463615 H 43.204422 32.083385 v 11.121035 11.12104 h 11.121037 11.121051 v 11.12104 11.12104 H 43.204422 32.083385 v 11.12104 11.12104 h 11.121037 11.121051 v 11.12104 11.12105 H 43.204422 32.083385 v 11.12104 11.12104 h 11.121037 11.121051 v 11.12104 11.12104 H 65.44651 76.56755 Z M 54.325473,195.55298 V 184.43194 H 65.44651 76.56755 V 173.31089 162.18985 H 65.44651 54.325473 V 151.06881 139.94777 H 65.44651 76.56755 v -11.12104 -11.12104 h 11.12104 11.12104 v 11.12104 11.12104 h 11.12104 11.12104 v -11.12104 -11.12104 h 11.12104 11.12105 v 11.12104 11.12104 h -11.12105 -11.12104 v 11.12104 11.12104 h 11.12104 11.12105 v 11.12104 11.12105 h -11.12105 -11.12104 v 11.12104 11.12104 H 109.93067 98.80963 V 195.55298 184.43194 H 87.68859 76.56755 v 11.12104 11.12104 H 65.44651 54.325473 Z M 121.05171,173.31089 V 162.18985 H 109.93067 98.80963 V 151.06881 139.94777 H 87.68859 76.56755 v 11.12104 11.12104 h 11.12104 11.12104 v 11.12104 11.12105 h 11.12104 11.12104 z"
       id="path302" /></g></svg>
