<?xml version="1.0" encoding="UTF-8" standalone="no"?>
<!-- Created with Inkscape (http://www.inkscape.org/) -->

<svg
   width="90.470085mm"
   height="122.76669mm"
   viewBox="0 0 90.470085 122.76669"
   version="1.1"
   id="svg5"
   xml:space="preserve"
   xmlns:inkscape="http://www.inkscape.org/namespaces/inkscape"
   xmlns:sodipodi="http://sodipodi.sourceforge.net/DTD/sodipodi-0.dtd"
   xmlns="http://www.w3.org/2000/svg"
   xmlns:svg="http://www.w3.org/2000/svg"><sodipodi:namedview
     id="namedview7"
     pagecolor="#ffffff"
     bordercolor="#666666"
     borderopacity="1.0"
     inkscape:showpageshadow="2"
     inkscape:pageopacity="0.0"
     inkscape:pagecheckerboard="0"
     inkscape:deskcolor="#d1d1d1"
     inkscape:document-units="mm"
     showgrid="false" /><defs
     id="defs2" /><g
     inkscape:label="Layer 1"
     inkscape:groupmode="layer"
     id="layer1"
     transform="translate(-28.816172,-50.463389)"><path
       style="fill:#d3d3d3;fill-opacity:1;stroke-width:0.264583"
       d="m 38.233527,172.68706 c -0.83166,-0.65418 -1.128731,-1.72991 -1.347819,-4.8806 -0.09107,-1.30969 -0.459161,-6.01266 -0.817976,-10.45105 -0.358817,-4.43838 -1.068811,-13.36807 -1.577763,-19.84375 -1.222214,-15.55086 -1.030306,-14.2875 -2.170322,-14.2875 -1.314577,0 -2.583923,-0.68086 -3.108928,-1.66758 -0.393083,-0.73879 -0.439311,-1.59119 -0.364887,-6.7284 l 0.08522,-5.88244 0.86438,-0.86443 c 0.850639,-0.8507 0.908487,-0.86588 3.638021,-0.95467 l 2.773641,-0.0902 V 94.193067 81.350047 l 1.124479,-1.09345 c 0.618463,-0.6014 1.631468,-1.5388 2.25112,-2.08312 1.123923,-0.98728 1.126238,-0.99311 0.958971,-2.4163 -0.257828,-2.1937 0.47062,-4.1925 2.137961,-5.866385 4.497094,-4.514747 12.005492,-1.790965 12.513641,4.539505 0.406479,5.06386 -4.272077,9.00874 -9.135679,7.70307 l -1.394302,-0.37432 -1.185386,1.04343 -1.185389,1.04341 v 11.61919 11.619183 h 2.076458 2.076461 l 0.167783,-2.71198 c 0.09228,-1.49159 0.35188,-3.41538 0.576887,-4.27509 1.402233,-5.357663 5.995122,-9.978013 11.63887,-11.708473 1.453816,-0.44577 2.73495,-0.48676 15.213541,-0.48676 12.478592,0 13.759725,0.041 15.213544,0.48676 2.85434,0.87518 5.15344,2.26214 7.28769,4.39639 3.24334,3.24335 4.619966,6.4958 4.934476,11.658343 l 0.15915,2.61226 7.83225,0.0804 c 8.45576,0.0868 8.52901,0.099 9.38894,1.5547 0.35915,0.60799 0.4277,1.66167 0.4277,6.57408 v 5.85004 l -0.87631,0.95621 c -0.73486,0.80187 -1.09545,0.97728 -2.23394,1.08667 l -1.35765,0.13045 -0.15669,1.35685 c -0.14451,1.25134 -2.26235,27.60359 -3.18164,39.58913 -0.55268,7.20579 -0.58175,7.37035 -1.4565,8.2451 l -0.75073,0.75073 H 74.098544 c -35.079747,0 -35.176111,-0.002 -35.865017,-0.54335 z m 66.898233,-5.60821 c 0.064,-0.1819 0.54001,-5.68854 1.05776,-12.23698 0.51775,-6.54844 1.29508,-16.2453 1.72739,-21.54859 0.4323,-5.30329 0.78601,-9.73837 0.78601,-9.85573 0,-0.11736 -15.606656,-0.21339 -34.681468,-0.21339 H 39.339975 l 0.158781,1.65365 c 0.154954,1.61378 0.467667,5.52124 2.398025,29.96406 0.51716,6.54844 0.992621,12.05508 1.056582,12.23698 0.09214,0.26204 6.549271,0.33073 31.089147,0.33073 24.539824,0 30.99703,-0.0687 31.08925,-0.33073 z m 8.06908,-51.92448 V 113.17 H 74.04251 34.884177 v 1.98437 1.98438 H 74.04251 113.20084 Z M 95.404914,104.43848 c -0.12038,-2.18472 -0.28166,-2.93611 -0.92552,-4.31202 -0.9576,-2.046343 -2.15825,-3.447273 -3.92209,-4.576323 -2.6652,-1.70603 -2.889371,-1.72753 -17.100907,-1.64087 l -12.803997,0.0781 -2.018913,0.9981 c -3.979246,1.96724 -6.022227,5.492623 -6.022227,10.392013 v 1.70677 H 74.080983 95.550714 Z M 48.659904,76.118667 c 0.580025,-0.31042 0.69737,-1.55135 0.194273,-2.05444 -0.174625,-0.17463 -0.627063,-0.3175 -1.005417,-0.3175 -1.270603,0 -1.7599,1.19526 -0.885034,2.16198 0.496832,0.54899 0.956395,0.60588 1.696178,0.20996 z m 22.791002,8.43656 c -5.342147,-0.76557 -10.351574,-4.42872 -12.772628,-9.34002 -1.401636,-2.84333 -1.922262,-5.400888 -1.755593,-8.624305 0.229934,-4.446989 1.836722,-7.984076 5.125115,-11.282112 1.510368,-1.5148 2.398143,-2.14247 4.365625,-3.086571 2.927133,-1.404592 4.463671,-1.75883 7.629085,-1.75883 3.159168,0 4.701837,0.354217 7.601464,1.745392 5.571709,2.673182 9.19611,8.149596 9.51836,14.382121 0.46779,9.047205 -5.877493,16.736135 -14.840256,17.982735 -2.294847,0.31919 -2.52136,0.31833 -4.871172,-0.0184 z m 5.380286,-6.1895 c 3.255928,-0.84256 5.845622,-3.02384 7.368577,-6.2065 0.766771,-1.602395 0.82295,-1.918474 0.82295,-4.630213 0,-2.753378 -0.04694,-3.006383 -0.869892,-4.688983 -1.657628,-3.389145 -4.702548,-5.65979 -8.482664,-6.325644 -4.572142,-0.805367 -9.542708,1.866872 -11.727526,6.304869 -0.83597,1.698096 -0.880335,1.935168 -0.880335,4.704194 0,2.717964 0.05589,3.032768 0.822949,4.635777 2.420533,5.05841 7.66554,7.57295 12.945941,6.2065 z"
       id="path302"
       sodipodi:nodetypes="csssssscsccccsssssscccccccssssssscssscsscssscsccssssscssssscccccccccsssscsscccsssssssssssssssssssssssscs" /></g></svg>
