<?xml version="1.0" encoding="UTF-8" standalone="no"?>
<!-- Created with Inkscape (http://www.inkscape.org/) -->

<svg
   width="127.37227mm"
   height="72.532829mm"
   viewBox="0 0 127.37227 72.532829"
   version="1.1"
   id="svg5"
   xml:space="preserve"
   xmlns:inkscape="http://www.inkscape.org/namespaces/inkscape"
   xmlns:sodipodi="http://sodipodi.sourceforge.net/DTD/sodipodi-0.dtd"
   xmlns="http://www.w3.org/2000/svg"
   xmlns:svg="http://www.w3.org/2000/svg"><sodipodi:namedview
     id="namedview7"
     pagecolor="#ffffff"
     bordercolor="#666666"
     borderopacity="1.0"
     inkscape:showpageshadow="2"
     inkscape:pageopacity="0.0"
     inkscape:pagecheckerboard="0"
     inkscape:deskcolor="#d1d1d1"
     inkscape:document-units="mm"
     showgrid="false" /><defs
     id="defs2" /><g
     inkscape:label="Layer 1"
     inkscape:groupmode="layer"
     id="layer1"
     transform="translate(-39.26476,-73.018926)"><path
       style="fill:#fe4e37;fill-opacity:1;stroke-width:0.24902"
       d="m 39.550209,79.640875 c 1.2027,-4.46056 5.73303,-7.33954 10.17445,-6.46574 0.85264,0.16774 2.00124,0.5296 2.55245,0.80412 0.6537,0.32556 9.640132,9.12746 25.841912,25.311262 l 24.839709,24.812133 24.8397,-24.812133 c 16.20179,-16.183802 25.18822,-24.985702 25.84191,-25.311262 1.70303,-0.84816 3.86335,-1.15576 5.65908,-0.80578 6.0537,1.17985 9.12877,7.57063 6.24333,12.97525 -0.8229,1.54135 -57.05126,57.746045 -58.48132,58.456715 -0.55121,0.27392 -1.69982,0.63529 -2.55245,0.80304 -1.78798,0.35176 -3.94609,0.0452 -5.652949,-0.80305 -1.25091,-0.62164 -57.397152,-56.616925 -58.314482,-58.157695 -1.23062,-2.06699 -1.59491,-4.56833 -0.99134,-6.80686 z"
       id="path302"
       inkscape:export-filename="arrowdown.svg"
       inkscape:export-xdpi="96"
       inkscape:export-ydpi="96" /></g></svg>
