<?xml version="1.0" encoding="UTF-8" standalone="no"?>
<!-- Created with Inkscape (http://www.inkscape.org/) -->

<svg
   version="1.1"
   id="svg182"
   width="93.845306"
   height="60.112549"
   viewBox="0 0 93.845306 60.112549"
   sodipodi:docname="icons.svg"
   inkscape:version="1.2.1 (9c6d41e410, 2022-07-14)"
   inkscape:export-filename="Capstone project Module 1\img\icons\ignite.svg"
   inkscape:export-xdpi="96"
   inkscape:export-ydpi="96"
   xmlns:inkscape="http://www.inkscape.org/namespaces/inkscape"
   xmlns:sodipodi="http://sodipodi.sourceforge.net/DTD/sodipodi-0.dtd"
   xmlns="http://www.w3.org/2000/svg"
   xmlns:svg="http://www.w3.org/2000/svg">
  <defs
     id="defs186" />
  <sodipodi:namedview
     id="namedview184"
     pagecolor="#ffffff"
     bordercolor="#000000"
     borderopacity="0.25"
     inkscape:showpageshadow="2"
     inkscape:pageopacity="0.0"
     inkscape:pagecheckerboard="0"
     inkscape:deskcolor="#d1d1d1"
     showgrid="false"
     inkscape:zoom="2.8284271"
     inkscape:cx="381.13055"
     inkscape:cy="1482.4494"
     inkscape:window-width="1920"
     inkscape:window-height="1017"
     inkscape:window-x="-8"
     inkscape:window-y="-8"
     inkscape:window-maximized="1"
     inkscape:current-layer="g188" />
  <g
     inkscape:groupmode="layer"
     inkscape:label="Image"
     id="g188"
     transform="translate(269.80765,-1964.6301)">
    <g
       id="g8647"
       transform="translate(-272,-328)">
      <path
         style="fill:#ee523c;fill-opacity:1;stroke:none;stroke-width:1.5;stroke-linecap:round;stroke-linejoin:round;stroke-dasharray:none;paint-order:markers fill stroke"
         d="m 48.25,2349.125 0.125,-20 4.625,0.25 6,5.375 -0.375,-17.875 32.5,-0.125 3.25,1.875 0.5,5 -0.375,18.875 -1.625,2.75 -4.375,1 -34.75,0.125 -5,4.375 z"
         id="path8382" />
      <path
         id="path2928"
         style="color:#000000;fill:#f6f6f6;fill-opacity:1;stroke-width:0.833266;stroke-linecap:round;stroke-linejoin:round;paint-order:markers fill stroke"
         d="m 8.6415551,2292.6301 c -3.5472,0 -6.4492,2.9021 -6.4492,6.4492 v 25.3203 c 0,3.5472 2.902,6.4492 6.4492,6.4492 H 47.416955 c 0.01,2.7208 0.01,5.4372 -0.045,8.1524 l -0.055,12.5312 c 0,1.0799 1.3091,1.6175 2.0664,0.8477 l 4.9511,-5.0332 h 36.3301 c 2.9557,0 5.3731,-2.4173 5.3731,-5.3731 v -21.0996 c 0,-2.9557 -2.4174,-5.373 -5.3731,-5.373 h -30.125 c -0.021,-5.4622 0.059,-10.9337 0.059,-16.4219 0,-3.5471 -2.9001,-6.4492 -6.4473,-6.4492 z m 0,2.8965 H 54.151255 c 1.9929,0 3.5508,1.5598 3.5508,3.5527 v 21.7969 l 0.064,11.459 -1.7383,-1.7676 v 0 l -2.1484,-2.1836 a 1.448,1.448 0 0 0 -0.6465,-0.3789 1.448,1.448 0 0 0 -0.4355,-0.049 H 8.6391551 c -1.9929,0 -3.5528,-1.5599 -3.5528,-3.5528 v -25.3203 c 0,-1.9929 1.5599,-3.5527 3.5528,-3.5527 z m 9.2987999,4.7656 c -1.3936,0 -2.6502,0.011 -3.5703,0.031 -0.4601,0.01 -0.8333,0.023 -1.1133,0.037 -0.14,0.01 -0.2521,0.014 -0.3711,0.027 -0.059,0.01 -0.1124,0.012 -0.2285,0.037 -0.058,0.013 -0.1238,0.02 -0.291,0.094 -0.042,0.018 -0.091,0.042 -0.1524,0.078 -0.061,0.036 -0.226,0.1616 -0.2265,0.1621 -6e-4,5e-4 -0.3044,0.3726 -0.3047,0.373 -3e-4,5e-4 -0.1895,0.7183 -0.1895,0.7188 v 0.5742 c 0,5e-4 0.1892,0.7163 0.1895,0.7168 3e-4,5e-4 0.3041,0.3726 0.3047,0.373 5e-4,5e-4 0.1651,0.1282 0.2265,0.1641 0.061,0.036 0.1106,0.06 0.1524,0.078 0.1672,0.073 0.233,0.081 0.291,0.094 0.1161,0.025 0.169,0.029 0.2285,0.035 0.119,0.013 0.2311,0.018 0.3711,0.025 0.28,0.015 0.6532,0.027 1.1133,0.037 0.9201,0.02 2.1767,0.033 3.5703,0.033 h 9.7109 c 1.3936,0 2.6503,-0.013 3.5703,-0.033 0.4601,-0.01 0.8353,-0.022 1.1153,-0.037 0.14,-0.01 0.2501,-0.012 0.3691,-0.025 0.059,-0.01 0.1144,-0.01 0.2305,-0.035 0.058,-0.013 0.1238,-0.02 0.291,-0.094 0.042,-0.018 0.091,-0.042 0.1524,-0.078 0.061,-0.036 0.226,-0.1636 0.2265,-0.1641 6e-4,-4e-4 0.3025,-0.3725 0.3027,-0.373 3e-4,-5e-4 0.1915,-0.7163 0.1915,-0.7168 v -0.5742 c 0,-5e-4 -0.1912,-0.7183 -0.1915,-0.7188 -2e-4,-4e-4 -0.3021,-0.3725 -0.3027,-0.373 -5e-4,-5e-4 -0.1652,-0.1262 -0.2265,-0.1621 -0.061,-0.036 -0.1106,-0.06 -0.1524,-0.078 -0.1672,-0.073 -0.233,-0.081 -0.291,-0.094 -0.1161,-0.025 -0.171,-0.031 -0.2305,-0.037 -0.119,-0.013 -0.2291,-0.02 -0.3691,-0.027 -0.28,-0.015 -0.6552,-0.027 -1.1153,-0.037 -0.92,-0.02 -2.1767,-0.031 -3.5703,-0.031 z m 2.332,6 c -2.0109,0 -3.8262,0.01 -5.1445,0.025 -0.6592,0.01 -1.1929,0.017 -1.5742,0.027 -0.1907,0.01 -0.3403,0.01 -0.4668,0.018 -0.063,0 -0.1153,0.01 -0.1992,0.018 -0.042,0 -0.083,0.01 -0.2012,0.033 -0.059,0.014 -0.1283,0.024 -0.3086,0.1094 -0.045,0.021 -0.1638,0.088 -0.1641,0.088 -3e-4,2e-4 -0.238,0.1835 -0.2382,0.1836 -2e-4,2e-4 -0.3027,0.3983 -0.3028,0.3985 0,2e-4 -0.1797,0.7205 -0.1797,0.7207 v 0.4472 c 0,2e-4 0.1797,0.7206 0.1797,0.7208 10e-5,0 0.3026,0.3982 0.3028,0.3984 2e-4,2e-4 0.2379,0.1834 0.2382,0.1836 3e-4,2e-4 0.119,0.069 0.1641,0.09 0.1803,0.085 0.2498,0.094 0.3086,0.1074 0.1176,0.028 0.1592,0.03 0.2012,0.035 0.084,0.01 0.1359,0.012 0.1992,0.016 0.1265,0.01 0.2761,0.014 0.4668,0.02 0.3813,0.011 0.915,0.019 1.5742,0.027 1.3183,0.016 3.1336,0.025 5.1445,0.025 h 14.0645 c 2.0109,0 3.8262,-0.01 5.1445,-0.025 0.6592,-0.01 1.193,-0.017 1.5742,-0.027 0.1907,-0.01 0.3403,-0.012 0.4668,-0.02 0.063,0 0.1153,-0.01 0.1992,-0.016 0.042,0 0.082,-0.01 0.1993,-0.035 0.059,-0.014 0.1302,-0.022 0.3105,-0.1074 0.045,-0.021 0.1638,-0.09 0.1641,-0.09 3e-4,-2e-4 0.2361,-0.1834 0.2363,-0.1836 2e-4,-2e-4 0.3046,-0.3984 0.3047,-0.3984 10e-5,-2e-4 0.1797,-0.7206 0.1797,-0.7208 v -0.4472 c 0,-2e-4 -0.1796,-0.7205 -0.1797,-0.7207 -1e-4,-2e-4 -0.3045,-0.3983 -0.3047,-0.3985 -2e-4,-10e-5 -0.236,-0.1834 -0.2363,-0.1836 -3e-4,-1e-4 -0.119,-0.067 -0.1641,-0.088 -0.1803,-0.085 -0.2517,-0.096 -0.3105,-0.1094 -0.1177,-0.028 -0.1573,-0.028 -0.1993,-0.033 -0.084,-0.01 -0.1359,-0.014 -0.1992,-0.018 -0.1265,-0.01 -0.2761,-0.012 -0.4668,-0.018 -0.3812,-0.011 -0.915,-0.019 -1.5742,-0.027 -1.3183,-0.016 -3.1336,-0.025 -5.1445,-0.025 z m -1.2539,6 c -1.6768,0 -3.1906,0.01 -4.2929,0.027 -0.5512,0.01 -0.9971,0.021 -1.3223,0.033 -0.1626,0.01 -0.292,0.011 -0.4121,0.02 -0.06,0 -0.1112,0.01 -0.209,0.023 -0.049,0.01 -0.1006,0.012 -0.2441,0.059 -0.072,0.023 -0.1655,0.044 -0.3575,0.168 -0.048,0.031 -0.1638,0.1228 -0.164,0.123 -3e-4,2e-4 -0.2089,0.2166 -0.209,0.2168 -2e-4,2e-4 -0.2128,0.3768 -0.2129,0.377 -10e-5,2e-4 -0.1016,0.5427 -0.1016,0.5429 v 0.5078 c 0,2e-4 0.1015,0.5409 0.1016,0.5411 10e-5,2e-4 0.2127,0.3767 0.2129,0.3769 10e-5,2e-4 0.2087,0.2166 0.209,0.2168 2e-4,2e-4 0.116,0.092 0.164,0.1231 0.192,0.1235 0.2857,0.1469 0.3575,0.1699 0.1435,0.046 0.1952,0.051 0.2441,0.059 0.098,0.016 0.1489,0.017 0.209,0.021 0.1201,0.01 0.2495,0.017 0.4121,0.023 0.3252,0.012 0.7711,0.022 1.3223,0.031 1.1023,0.018 2.6161,0.029 4.2929,0.029 h 11.711 c 1.6768,0 3.1906,-0.012 4.2929,-0.029 0.5512,-0.01 0.997,-0.019 1.3223,-0.031 0.1626,-0.01 0.2919,-0.014 0.4121,-0.023 0.06,0 0.1112,-0.01 0.209,-0.021 0.049,-0.01 0.1006,-0.013 0.2441,-0.059 0.072,-0.023 0.1635,-0.046 0.3555,-0.1699 0.048,-0.031 0.1658,-0.1229 0.166,-0.1231 3e-4,-2e-4 0.2069,-0.2166 0.207,-0.2168 2e-4,-2e-4 0.2148,-0.3767 0.2149,-0.3769 10e-5,-2e-4 0.1016,-0.5409 0.1016,-0.5411 v -0.5078 c 0,-2e-4 -0.1015,-0.5427 -0.1016,-0.5429 -1e-4,-2e-4 -0.2147,-0.3768 -0.2149,-0.377 -1e-4,-2e-4 -0.2067,-0.2166 -0.207,-0.2168 -2e-4,-2e-4 -0.118,-0.092 -0.166,-0.123 -0.192,-0.1234 -0.2837,-0.145 -0.3555,-0.168 -0.1435,-0.046 -0.1952,-0.051 -0.2441,-0.059 -0.098,-0.016 -0.1489,-0.019 -0.209,-0.023 -0.1202,-0.01 -0.2495,-0.014 -0.4121,-0.02 -0.3253,-0.013 -0.7711,-0.024 -1.3223,-0.033 -1.1023,-0.018 -2.6161,-0.027 -4.2929,-0.027 z m 41.5469,5.623 h 30.0996 v 0 c 1.6606,0 2.9609,1.3003 2.9609,2.9609 v 21.0977 c 0,1.6606 -1.3003,2.9609 -2.9609,2.9609 h -36.7949 a 1.2065686,1.2065686 0 0 0 -0.3633,0.041 1.2065686,1.2065686 0 0 0 -0.5391,0.3164 l -1.791,1.8184 v 0 l -1.4473,1.4727 0.053,-9.5469 v -8.1895 h 2.4571 l 5.9414,6.0391 c 0.9088,0.9238 2.486,0.2803 2.4805,-1.0156 l -0.014,-2.9434 h 23.7539 a 1.448,1.448 0 0 0 1.4473,-1.4492 1.448,1.448 0 0 0 -1.4473,-1.4473 h -23.7598 a 1.448,1.448 0 0 0 -0.01,0 l -0.014,-3.2051 h 14.7187 a 1.448,1.448 0 0 0 1.4493,-1.4472 1.448,1.448 0 0 0 -1.4493,-1.4492 h -14.7246 a 1.448,1.448 0 0 0 -0.01,0 l -0.014,-3.0996 c -0.019,-0.9721 -0.023,-1.9453 -0.033,-2.918 z" />
    </g>
  </g>
</svg>
