<?xml version="1.0" encoding="UTF-8" standalone="no"?>
<!-- Created with Inkscape (http://www.inkscape.org/) -->

<svg
   version="1.1"
   id="svg182"
   width="75.537079"
   height="75.541016"
   viewBox="0 0 75.537079 75.541016"
   sodipodi:docname="icons.svg"
   inkscape:version="1.2.1 (9c6d41e410, 2022-07-14)"
   inkscape:export-filename="Capstone project Module 1\img\icons\ignite.svg"
   inkscape:export-xdpi="96"
   inkscape:export-ydpi="96"
   xmlns:inkscape="http://www.inkscape.org/namespaces/inkscape"
   xmlns:sodipodi="http://sodipodi.sourceforge.net/DTD/sodipodi-0.dtd"
   xmlns="http://www.w3.org/2000/svg"
   xmlns:svg="http://www.w3.org/2000/svg">
  <defs
     id="defs186" />
  <sodipodi:namedview
     id="namedview184"
     pagecolor="#ffffff"
     bordercolor="#000000"
     borderopacity="0.25"
     inkscape:showpageshadow="2"
     inkscape:pageopacity="0.0"
     inkscape:pagecheckerboard="0"
     inkscape:deskcolor="#d1d1d1"
     showgrid="false"
     inkscape:zoom="2.8284271"
     inkscape:cx="381.13055"
     inkscape:cy="1482.4494"
     inkscape:window-width="1920"
     inkscape:window-height="1017"
     inkscape:window-x="-8"
     inkscape:window-y="-8"
     inkscape:window-maximized="1"
     inkscape:current-layer="g188" />
  <g
     inkscape:groupmode="layer"
     inkscape:label="Image"
     id="g188"
     transform="translate(446.47626,-2106.1772)">
    <g
       id="g2679">
      <path
         id="path9045-9"
         style="fill:#ee523c;stroke-width:1.5;stroke-linecap:round;stroke-linejoin:round;paint-order:markers fill stroke"
         d="m -404.12485,2113.0498 a 4.625,4.625 0 0 1 -4.625,4.625 4.625,4.625 0 0 1 -4.625,-4.625 4.625,4.625 0 0 1 4.625,-4.625 4.625,4.625 0 0 1 4.625,4.625 z" />
      <path
         id="circle9101-2"
         style="fill:#ee523c;stroke-width:1.5;stroke-linecap:round;stroke-linejoin:round;paint-order:markers fill stroke"
         d="m -435.12485,2144.0498 a 4.625,4.625 0 0 1 -4.625,4.625 4.625,4.625 0 0 1 -4.625,-4.625 4.625,4.625 0 0 1 4.625,-4.625 4.625,4.625 0 0 1 4.625,4.625 z" />
      <path
         id="circle9109-5"
         style="fill:#ee523c;stroke-width:1.5;stroke-linecap:round;stroke-linejoin:round;paint-order:markers fill stroke"
         d="m -373.37485,2143.9248 a 4.625,4.625 0 0 1 -4.625,4.625 4.625,4.625 0 0 1 -4.625,-4.625 4.625,4.625 0 0 1 4.625,-4.625 4.625,4.625 0 0 1 4.625,4.625 z" />
      <path
         id="circle9105-9"
         style="fill:#ee523c;stroke-width:1.5;stroke-linecap:round;stroke-linejoin:round;paint-order:markers fill stroke"
         d="m -404.24985,2175.0498 a 4.625,4.625 0 0 1 -4.625,4.625 4.625,4.625 0 0 1 -4.625,-4.625 4.625,4.625 0 0 1 4.625,-4.625 4.625,4.625 0 0 1 4.625,4.625 z" />
      <path
         id="path4459-0"
         style="color:#000000;fill:#f6f6f6;fill-opacity:1;stroke-linecap:round;stroke-linejoin:round;paint-order:markers fill stroke"
         d="m -408.70677,2106.1772 c -3.2954,0 -6.0588,2.3933 -6.6484,5.5254 -4.1482,0.8551 -8.009,2.499 -11.4277,4.7597 -1.1514,-0.7936 -2.4975,-1.1953 -3.8457,-1.1953 -1.7352,0 -3.468,0.658 -4.7832,1.9727 -2.3432,2.342 -2.5935,6.0122 -0.7657,8.6465 -2.244,3.4147 -3.8753,7.2666 -4.7207,11.4043 -3.1576,0.5685 -5.5781,3.3425 -5.5781,6.6562 0,3.324 2.4355,6.1039 5.6074,6.6602 0.1566,0.027 0.3128,0.056 0.4727,0.072 0.2267,0.023 0.4569,0.035 0.6894,0.035 0.1965,0 0.3897,-0.011 0.5821,-0.027 -0.192,0.017 -0.386,0.027 -0.5821,0.027 -0.2325,0 -0.4627,-0.012 -0.6894,-0.035 -0.1599,-0.016 -0.3161,-0.045 -0.4727,-0.072 0.8583,4.1134 2.4904,7.9437 4.7325,11.3378 0.084,-0.1189 0.1666,-0.2391 0.2597,-0.3535 0.1439,-0.1767 0.2985,-0.3473 0.4629,-0.5117 0.1644,-0.1644 0.335,-0.319 0.5117,-0.4629 0.1768,-0.1438 0.3595,-0.2771 0.5469,-0.4004 0.1874,-0.1233 0.3797,-0.2371 0.5762,-0.3398 0.1965,-0.1028 0.3977,-0.1952 0.6015,-0.2774 -0.2038,0.082 -0.405,0.1746 -0.6015,0.2774 -0.1965,0.1027 -0.3888,0.2165 -0.5762,0.3398 -0.1874,0.1233 -0.3701,0.2566 -0.5469,0.4004 -0.1767,0.1439 -0.3473,0.2985 -0.5117,0.4629 -0.1644,0.1644 -0.319,0.335 -0.4629,0.5117 -0.093,0.1144 -0.1752,0.2346 -0.2597,0.3535 -1.8741,2.6387 -1.6373,6.3491 0.7226,8.709 v 0 c 2.3648,2.366 6.0834,2.5975 8.7227,0.711 0.1135,-0.081 0.2286,-0.1591 0.3379,-0.2481 0.1767,-0.1439 0.3472,-0.2985 0.5117,-0.4629 0.1411,-0.1411 0.2725,-0.2873 0.3984,-0.4375 -0.1259,0.1499 -0.2576,0.2967 -0.3984,0.4375 -0.1645,0.1644 -0.335,0.319 -0.5117,0.4629 -0.1093,0.089 -0.2244,0.1669 -0.3379,0.2481 3.3904,2.2259 7.2111,3.8485 11.3144,4.6972 -0.023,-0.14 -0.05,-0.2791 -0.064,-0.4218 -0.023,-0.2267 -0.035,-0.457 -0.035,-0.6895 0,-0.1986 0.01,-0.3953 0.027,-0.5898 -0.017,0.1947 -0.027,0.3908 -0.027,0.5898 0,0.2325 0.012,0.4628 0.035,0.6895 0.015,0.1427 0.041,0.2818 0.064,0.4218 0.5357,3.1963 3.3284,5.6563 6.6699,5.6563 3.3417,0 6.1327,-2.46 6.668,-5.6563 0.024,-0.14 0.05,-0.2791 0.064,-0.4218 0.023,-0.2267 0.035,-0.457 0.035,-0.6895 0,-0.199 -0.01,-0.3951 -0.027,-0.5898 0.017,0.1945 0.027,0.3912 0.027,0.5898 0,0.2325 -0.012,0.4628 -0.035,0.6895 -0.015,0.1427 -0.041,0.2818 -0.064,0.4218 4.1032,-0.8484 7.9241,-2.4698 11.3145,-4.6953 -0.1128,-0.081 -0.2274,-0.1577 -0.336,-0.2461 -0.1767,-0.1439 -0.3473,-0.2984 -0.5117,-0.4629 -0.1409,-0.1408 -0.2725,-0.2876 -0.3984,-0.4375 0.1259,0.1503 0.2573,0.2964 0.3984,0.4375 0.1644,0.1645 0.335,0.319 0.5117,0.4629 0.1086,0.088 0.2232,0.1655 0.336,0.2461 2.6394,1.8881 6.3591,1.6565 8.7246,-0.709 2.359,-2.3602 2.5953,-6.0686 0.7207,-8.707 2.2427,-3.3948 3.8759,-7.2255 4.7344,-11.3398 -0.1566,0.027 -0.3128,0.056 -0.4727,0.072 -0.2267,0.023 -0.4569,0.035 -0.6895,0.035 -0.1959,0 -0.39,-0.011 -0.582,-0.027 0.1923,0.017 0.3856,0.027 0.582,0.027 0.2326,0 0.4628,-0.012 0.6895,-0.035 0.1599,-0.016 0.3161,-0.045 0.4727,-0.072 3.1716,-0.5563 5.6054,-3.3362 5.6054,-6.6602 0,-3.3137 -2.4188,-6.0877 -5.5761,-6.6562 -0.8454,-4.1377 -2.4767,-7.9896 -4.7208,-11.4043 1.8295,-2.6342 1.5791,-6.3038 -0.7636,-8.6465 -1.3154,-1.3148 -3.0518,-1.9725 -4.7871,-1.9727 -1.3481,-1e-4 -2.6928,0.4016 -3.8438,1.1953 -3.4193,-2.2611 -7.2807,-3.9047 -11.4297,-4.7597 -0.5892,-3.1321 -3.3509,-5.5254 -6.6465,-5.5254 z m 0,3.0429 c 2.0755,0 3.7247,1.6511 3.7247,3.7266 0,2.0755 -1.6492,3.7246 -3.7247,3.7246 -2.0754,0 -3.7265,-1.6491 -3.7265,-3.7246 0,-2.0755 1.6511,-3.7266 3.7265,-3.7266 z m -6.6503,2.4922 c -0.034,0.1799 -0.065,0.3606 -0.084,0.5449 -0.023,0.2268 -0.035,0.457 -0.035,0.6895 0,0.199 0.01,0.3951 0.027,0.5898 -0.017,-0.1945 -0.027,-0.3912 -0.027,-0.5898 0,-0.2325 0.012,-0.4627 0.035,-0.6895 0.019,-0.1843 0.05,-0.3651 0.084,-0.5449 z m 13.2988,0 c 0.034,0.1798 0.065,0.3606 0.084,0.5449 0.023,0.2268 0.035,0.457 0.035,0.6895 0,0.1986 -0.01,0.3953 -0.027,0.5898 0.017,-0.1947 0.027,-0.3908 0.027,-0.5898 0,-0.2325 -0.012,-0.4627 -0.035,-0.6895 -0.019,-0.1843 -0.051,-0.365 -0.084,-0.5449 z m -13.3867,1.8711 c 0.017,0.1836 0.042,0.3659 0.074,0.5449 -0.029,-0.1623 -0.053,-0.3262 -0.07,-0.4921 0,-0.017 0,-0.035 0,-0.053 z m 13.4746,0 c 0,0.017 0,0.035 0,0.053 -0.017,0.1659 -0.041,0.3298 -0.07,0.4921 0.032,-0.1791 0.057,-0.3613 0.074,-0.5449 z m -13.3828,0.6387 c 0.033,0.171 0.073,0.3396 0.1191,0.5058 -0.038,-0.1391 -0.074,-0.2792 -0.1035,-0.4218 -0.01,-0.028 -0.01,-0.056 -0.016,-0.084 z m 13.291,0 c -0.01,0.028 -0.01,0.056 -0.016,0.084 -0.029,0.1426 -0.065,0.2827 -0.1035,0.4218 0.046,-0.1662 0.086,-0.3348 0.1192,-0.5058 z m -13.1465,0.5937 c 0.046,0.1604 0.098,0.3175 0.1562,0.4727 -0.042,-0.1106 -0.082,-0.2226 -0.1171,-0.3359 -0.014,-0.045 -0.026,-0.091 -0.039,-0.1368 z m 13.0019,0 c -0.013,0.046 -0.025,0.092 -0.039,0.1368 -0.035,0.1133 -0.075,0.2253 -0.1172,0.3359 0.058,-0.1553 0.1097,-0.3123 0.1562,-0.4727 z m -12.8125,0.5586 c 0.861,2.2125 2.8575,3.8704 5.2637,4.25 v 13.8692 c -2.0918,0.2103 -4.005,1.0413 -5.5508,2.3066 l -9.83,-9.8301 c 1.4187,-1.9797 1.6444,-4.5686 0.6699,-6.7382 -0.08,-0.179 -0.1709,-0.3547 -0.2676,-0.5274 0.032,0.057 0.066,0.1124 0.096,0.1699 0.062,0.1175 0.118,0.237 0.1719,0.3575 0.034,0.075 0.067,0.1506 0.098,0.2265 2.839,-1.822 6.0157,-3.1641 9.42,-3.9082 -0.024,-0.058 -0.047,-0.1169 -0.07,-0.1758 z m 12.6231,0 c -0.023,0.059 -0.046,0.1177 -0.07,0.1758 3.404,0.744 6.5831,2.0844 9.4219,3.9063 0.028,-0.069 0.059,-0.1369 0.09,-0.2051 -0.9636,2.1647 -0.7365,4.7436 0.6777,6.7168 l -9.832,9.832 c -1.5457,-1.2652 -3.4588,-2.0966 -5.5508,-2.3066 v -13.8692 c 2.4068,-0.379 4.4029,-2.0372 5.2637,-4.25 z m -24.3828,1.0918 c 0.144,0.099 0.2883,0.1987 0.4258,0.3106 0.1767,0.1438 0.3472,0.2984 0.5117,0.4629 0.1428,0.1428 0.2768,0.2912 0.4043,0.4433 -0.1274,-0.1523 -0.2613,-0.3003 -0.4043,-0.4433 -0.1645,-0.1645 -0.335,-0.3191 -0.5117,-0.4629 -0.1375,-0.1119 -0.2818,-0.2111 -0.4258,-0.3106 z m 36.1445,0 c -0.1439,0.1 -0.2884,0.1987 -0.4258,0.3106 -0.1767,0.1439 -0.3473,0.2984 -0.5117,0.4629 -0.143,0.1429 -0.2769,0.291 -0.4043,0.4433 0.1275,-0.1521 0.2615,-0.3005 0.4043,-0.4433 0.1644,-0.1645 0.335,-0.319 0.5117,-0.4629 0.1374,-0.1119 0.2818,-0.2112 0.4258,-0.3106 z m -34.7851,1.2383 c 0.013,0.016 0.028,0.031 0.041,0.047 0.1083,0.1331 0.208,0.2708 0.3047,0.4101 -0.1081,-0.1557 -0.2231,-0.309 -0.3457,-0.457 z m 33.4257,0 c -0.1226,0.148 -0.2376,0.3014 -0.3457,0.457 0.097,-0.1393 0.1964,-0.277 0.3047,-0.4101 0.013,-0.016 0.028,-0.031 0.041,-0.047 z m -33.0488,0.502 c 0.021,0.031 0.044,0.061 0.065,0.092 0.085,0.1296 0.1645,0.2624 0.2402,0.3964 -0.094,-0.1664 -0.1959,-0.3287 -0.3047,-0.4882 z m 32.6719,0 c -0.1022,0.1497 -0.1964,0.3031 -0.2852,0.459 0.07,-0.1239 0.1418,-0.2473 0.2207,-0.3672 0.021,-0.031 0.043,-0.061 0.064,-0.092 z m -38.2598,0.084 c 0.9507,0 1.901,0.3677 2.6348,1.1015 1.469,1.4676 1.4676,3.8 0,5.2676 -1.4676,1.4676 -3.8,1.4676 -5.2676,0 -1.4662,-1.4676 -1.4676,-3.8 0,-5.2676 0.7337,-0.7331 1.6826,-1.1015 2.6328,-1.1015 z m 43.8438,0 c 0.9503,2e-4 1.901,0.3678 2.6347,1.1016 1.4676,1.4676 1.4676,3.798 0,5.2656 -1.4676,1.4663 -3.8019,1.4676 -5.2695,0 v 0 c -1.4675,-1.4675 -1.4676,-3.8019 0,-5.2695 0.7338,-0.7345 1.6845,-1.1018 2.6348,-1.1016 z m -5.9141,0.4512 c -0.083,0.1503 -0.1599,0.302 -0.2305,0.457 0.05,-0.1094 0.1021,-0.2188 0.1582,-0.3262 0.023,-0.044 0.048,-0.087 0.072,-0.1308 z m -43.4668,7.1562 c 0.094,0.1352 0.1877,0.271 0.293,0.4004 0.1439,0.1767 0.2984,0.3473 0.4629,0.5117 0.1411,0.1411 0.2873,0.2726 0.4375,0.3985 -0.1499,-0.1259 -0.2967,-0.2575 -0.4375,-0.3985 -0.1645,-0.1644 -0.319,-0.335 -0.4629,-0.5117 -0.1053,-0.1293 -0.199,-0.2651 -0.293,-0.4004 z m 54.9102,0.016 c -0.09,0.1292 -0.1787,0.2591 -0.2793,0.3828 -0.1439,0.1767 -0.2985,0.3473 -0.4629,0.5117 -0.1409,0.1409 -0.2876,0.2725 -0.4375,0.3984 0.1502,-0.1259 0.2964,-0.2573 0.4375,-0.3984 0.1644,-0.1644 0.319,-0.335 0.4629,-0.5117 0.1006,-0.1236 0.1887,-0.254 0.2793,-0.3828 z m -1.2168,1.3242 c -0.013,0.01 -0.024,0.023 -0.037,0.033 -0.124,0.1009 -0.2516,0.1945 -0.3809,0.2851 0.1424,-0.1 0.2821,-0.2061 0.418,-0.3183 z m -52.4629,0 c 0.1359,0.1123 0.2755,0.2184 0.4179,0.3184 -0.1293,-0.091 -0.2569,-0.1843 -0.3808,-0.2852 -0.013,-0.01 -0.024,-0.023 -0.037,-0.033 z m 44.1328,0.2188 c 1.9782,1.4604 4.5878,1.7086 6.7773,0.7402 -0.07,0.031 -0.1387,0.061 -0.209,0.09 0,4e-4 0,0 0,0 1.8138,2.8444 3.1449,6.0259 3.8789,9.4336 0.01,0 0.018,-0.01 0.027,-0.014 0.075,-0.032 0.1518,-0.061 0.2285,-0.09 -2.2071,0.8471 -3.8686,2.8232 -4.2695,5.2109 h -13.9453 c -0.2103,-2.0917 -1.0417,-4.005 -2.3067,-5.5508 z m -35.8047,0 9.8203,9.8203 c -1.2653,1.5458 -2.0963,3.4591 -2.3066,5.5508 h -13.9453 c -0.4008,-2.3877 -2.061,-4.3638 -4.2676,-5.2109 0.077,0.029 0.1532,0.058 0.2285,0.09 0.01,0 0.017,0.01 0.025,0.012 0.7341,-3.4066 2.0638,-6.5879 3.8769,-9.4316 -0.073,-0.029 -0.1448,-0.062 -0.2168,-0.094 2.1911,0.9732 4.8043,0.7257 6.7852,-0.7364 z m 43.6055,0.1719 c -0.019,0.012 -0.036,0.027 -0.055,0.039 -0.1227,0.081 -0.2483,0.1563 -0.375,0.2285 0.1461,-0.083 0.2889,-0.173 0.4297,-0.2676 z m -51.4043,0 c 0.1407,0.095 0.2836,0.1847 0.4297,0.2675 -0.1268,-0.072 -0.2524,-0.1477 -0.375,-0.2285 -0.019,-0.012 -0.036,-0.027 -0.055,-0.039 z m 50.8926,0.3105 c -0.04,0.022 -0.079,0.045 -0.1192,0.066 -0.1172,0.061 -0.2372,0.1179 -0.3574,0.1719 0.1613,-0.072 0.3203,-0.1526 0.4766,-0.2383 z m -50.3809,0 c 0.1601,0.088 0.3229,0.1702 0.4883,0.2441 -0.1243,-0.056 -0.2475,-0.1141 -0.3692,-0.1777 -0.04,-0.021 -0.079,-0.044 -0.1191,-0.066 z m 25.1894,7.9882 c 4.4024,0 7.9434,3.5435 7.9434,7.9453 0,4.4024 -3.541,7.9434 -7.9434,7.9434 -4.4023,0 -7.9453,-3.541 -7.9453,-7.9434 0,-4.4018 3.543,-7.9453 7.9453,-7.9453 z m -31,1.2403 c 0.2007,0 0.3993,0.01 0.5957,0.027 -0.1965,-0.017 -0.3948,-0.027 -0.5957,-0.027 z m 0,0 c -0.2325,0 -0.4627,0.012 -0.6894,0.035 -0.1586,0.016 -0.3135,0.045 -0.4688,0.072 0.1551,-0.028 0.3102,-0.056 0.4688,-0.072 0.2267,-0.023 0.4569,-0.035 0.6894,-0.035 z m 62,0 c 0.2326,0 0.4628,0.012 0.6895,0.035 0.1586,0.016 0.3137,0.044 0.4687,0.072 -0.1552,-0.027 -0.3101,-0.056 -0.4687,-0.072 -0.2267,-0.023 -0.4569,-0.035 -0.6895,-0.035 z m 0,0 c -0.2008,0 -0.3991,0.01 -0.5957,0.027 0.1964,-0.017 0.3952,-0.027 0.5957,-0.027 z m -61.3711,0.031 c 0.02,0 0.041,0 0.061,0 0.162,0.017 0.322,0.04 0.4805,0.068 -0.1784,-0.032 -0.3582,-0.055 -0.5411,-0.072 z m 60.7422,0 c -0.1809,0.017 -0.3605,0.041 -0.5371,0.072 0.1573,-0.028 0.3159,-0.052 0.4766,-0.068 0.02,0 0.04,0 0.061,0 z m -60.0996,0.092 c 0.029,0.01 0.059,0.01 0.088,0.016 0.136,0.028 0.2696,0.062 0.4024,0.098 -0.1607,-0.044 -0.3252,-0.081 -0.4903,-0.1133 z m 59.4492,0 c -0.163,0.032 -0.3236,0.07 -0.4824,0.1133 0.1327,-0.036 0.2664,-0.07 0.4024,-0.098 0.027,-0.01 0.053,-0.01 0.08,-0.016 z m -58.8476,0.1445 c 0.044,0.013 0.089,0.025 0.1328,0.039 0.1139,0.036 0.2266,0.076 0.3379,0.1172 -0.1547,-0.058 -0.311,-0.1097 -0.4707,-0.1563 z m 58.2539,0 c -0.1598,0.047 -0.316,0.099 -0.4707,0.1563 0.1113,-0.041 0.2239,-0.082 0.3379,-0.1172 0.044,-0.014 0.088,-0.026 0.1328,-0.039 z m -60.127,2.7754 c 2.0755,0 3.7247,1.6512 3.7247,3.7266 0,2.0755 -1.6492,3.7246 -3.7247,3.7246 -2.0755,0 -3.7265,-1.6491 -3.7265,-3.7246 0,-2.0754 1.651,-3.7266 3.7265,-3.7266 z m 62,0 c 2.0755,0 3.7247,1.6512 3.7247,3.7266 0,2.0755 -1.6492,3.7246 -3.7247,3.7246 -2.0755,0 -3.7265,-1.6491 -3.7265,-3.7246 0,-2.0754 1.651,-3.7266 3.7265,-3.7266 z m -55.3125,4.709 h 13.9239 c 0.21,2.092 1.0414,4.0051 2.3066,5.5508 l -9.8945,9.8945 c -1.1726,-0.8404 -2.5559,-1.2675 -3.9434,-1.2675 -0.8444,-10e-5 -1.6881,0.1573 -2.4844,0.4687 -1.8263,-2.8376 -3.1717,-6.0157 -3.9199,-9.4199 -0.017,0.01 -0.032,0.016 -0.049,0.023 -0.064,0.027 -0.1286,0.051 -0.1934,0.076 2.23,-0.8696 3.8949,-2.8925 4.2539,-5.3262 z m 34.6993,0 h 13.9238 c 0.3593,2.4337 2.0254,4.4567 4.2559,5.3262 -0.065,-0.025 -0.1296,-0.049 -0.1934,-0.076 -0.017,-0.01 -0.032,-0.016 -0.049,-0.023 -0.748,3.4051 -2.0935,6.5836 -3.92,9.4219 -0.7962,-0.3119 -1.6398,-0.4708 -2.4843,-0.4707 -1.3874,0 -2.7708,0.4285 -3.9434,1.2695 l -9.8965,-9.8965 c 1.2648,-1.5457 2.0968,-3.4588 2.3067,-5.5508 z m -39.0254,5.3555 c -0.117,0.044 -0.2357,0.086 -0.3555,0.123 -0.033,0.01 -0.067,0.019 -0.1,0.029 0.154,-0.046 0.3058,-0.096 0.4551,-0.1523 z m 57.2773,0 c 0.1493,0.056 0.3011,0.1067 0.4551,0.1523 -0.033,-0.01 -0.067,-0.019 -0.1,-0.029 -0.1199,-0.037 -0.2385,-0.079 -0.3555,-0.123 z m -57.8711,0.1914 c -0.1346,0.037 -0.2702,0.071 -0.4082,0.1 -0.028,0.01 -0.057,0.01 -0.086,0.016 0.167,-0.032 0.3316,-0.071 0.4941,-0.1152 z m 58.4649,0 c 0.1625,0.044 0.3271,0.083 0.4941,0.1152 -0.028,-0.01 -0.057,-0.01 -0.086,-0.016 -0.1381,-0.028 -0.2736,-0.063 -0.4082,-0.1 z m -59.0332,0.1289 c -0.1681,0.031 -0.3378,0.057 -0.5098,0.074 -0.015,0 -0.03,0 -0.045,0 0.1869,-0.018 0.3724,-0.045 0.5547,-0.078 z m 59.6015,0 c 0.1823,0.033 0.3678,0.06 0.5547,0.078 -0.015,0 -0.03,0 -0.045,0 -0.172,-0.018 -0.3417,-0.044 -0.5098,-0.074 z m -36.4004,1.3574 c 1.5458,1.265 3.459,2.0964 5.5508,2.3067 v 13.998 c -2.4107,0.3806 -4.4112,2.0446 -5.2695,4.2637 0.027,-0.071 0.054,-0.1413 0.084,-0.211 0.014,-0.033 0.032,-0.064 0.047,-0.098 -3.4095,-0.7384 -6.5931,-2.0733 -9.4375,-3.8926 -0.011,0.028 -0.018,0.058 -0.029,0.086 -0.029,0.073 -0.062,0.1448 -0.094,0.2167 0.9733,-2.191 0.7257,-4.8043 -0.7363,-6.7851 z m 13.1973,0 9.8867,9.8867 c -1.4604,1.9783 -1.7086,4.5878 -0.7402,6.7774 -0.031,-0.07 -0.062,-0.1387 -0.09,-0.209 -0.011,-0.028 -0.018,-0.058 -0.029,-0.086 -2.8447,1.8191 -6.0293,3.1545 -9.4394,3.8925 0.014,0.033 0.033,0.063 0.047,0.096 0.029,0.07 0.057,0.1402 0.084,0.211 -0.8582,-2.2194 -2.8584,-3.8837 -5.2696,-4.2637 v -13.998 c 2.092,-0.2099 4.0051,-1.0419 5.5508,-2.3067 z m 17.873,7.6387 c 0.2039,0.082 0.4051,0.1745 0.6016,0.2773 0.1965,0.1029 0.3888,0.2165 0.5762,0.3399 0.1874,0.1234 0.3701,0.2565 0.5469,0.4004 0.1767,0.1439 0.3473,0.2984 0.5117,0.4629 0.1644,0.1644 0.319,0.335 0.4629,0.5117 0.083,0.1027 0.157,0.2112 0.2324,0.3183 -0.077,-0.1065 -0.1488,-0.2155 -0.2324,-0.3183 -0.1439,-0.1767 -0.2985,-0.3473 -0.4629,-0.5117 -0.1644,-0.1645 -0.335,-0.319 -0.5117,-0.4629 -0.1768,-0.1439 -0.3595,-0.277 -0.5469,-0.4004 -0.1874,-0.1234 -0.3797,-0.237 -0.5762,-0.3399 -0.1965,-0.1028 -0.3977,-0.195 -0.6016,-0.2773 z m -46.3906,2.5312 c 0.9503,2e-4 1.899,0.3678 2.6328,1.1016 1.4676,1.4676 1.4676,3.8 0,5.2676 -1.4676,1.4662 -3.7999,1.4676 -5.2675,0 -1.4665,-1.4677 -1.4673,-3.8004 0,-5.2676 0.7338,-0.7345 1.6844,-1.1017 2.6347,-1.1016 z m 43.836,0 c 0.9506,10e-5 1.9029,0.3659 2.6367,1.0997 1.4689,1.4676 1.4675,3.802 0,5.2695 -1.4676,1.4676 -3.8,1.4676 -5.2676,0 -1.4663,-1.4676 -1.4676,-3.8019 0,-5.2695 v 0 c 0.7337,-0.7338 1.6841,-1.0997 2.6348,-1.0997 z m -37.67,6.5137 c -0.056,0.1243 -0.114,0.2475 -0.1777,0.3692 -0.021,0.04 -0.044,0.079 -0.066,0.1191 0.088,-0.1601 0.1702,-0.3229 0.2441,-0.4883 z m 31.5137,0.016 c 0.072,0.1614 0.1525,0.3203 0.2383,0.4766 -0.022,-0.04 -0.045,-0.079 -0.066,-0.1191 -0.061,-0.1172 -0.1179,-0.2372 -0.1719,-0.3575 z m -31.8027,0.5547 c -0.072,0.1268 -0.1478,0.2524 -0.2285,0.375 -0.012,0.019 -0.027,0.036 -0.039,0.055 0.095,-0.1407 0.1847,-0.2836 0.2676,-0.4297 z m 32.0859,0 c 0.083,0.1461 0.173,0.289 0.2676,0.4297 -0.013,-0.019 -0.027,-0.036 -0.039,-0.055 -0.081,-0.1227 -0.1563,-0.2483 -0.2285,-0.375 z m -32.4297,0.5371 c -0.091,0.1294 -0.1843,0.257 -0.2851,0.3809 -0.01,0.013 -0.023,0.024 -0.033,0.037 0.1122,-0.1359 0.2184,-0.2755 0.3183,-0.418 z m 32.7735,0 c 0.1,0.1424 0.2061,0.282 0.3183,0.4179 -0.011,-0.013 -0.023,-0.024 -0.033,-0.037 -0.1009,-0.1239 -0.1945,-0.2515 -0.2851,-0.3808 z m -16.3868,1.4589 c 2.0755,0 3.7247,1.6511 3.7247,3.7266 0,2.0755 -1.6492,3.7246 -3.7247,3.7246 -2.0754,0 -3.7265,-1.6491 -3.7265,-3.7246 0,-2.0755 1.6511,-3.7266 3.7265,-3.7266 z m -6.3418,1.3731 c -0.06,0.159 -0.1124,0.32 -0.1601,0.4844 0.013,-0.046 0.025,-0.092 0.039,-0.1368 0.037,-0.1172 0.078,-0.2331 0.121,-0.3476 z m 12.6817,0 c 0.043,0.1145 0.084,0.2304 0.1211,0.3476 0.014,0.045 0.026,0.091 0.039,0.1368 -0.048,-0.1644 -0.1004,-0.3254 -0.1601,-0.4844 z m -12.8672,0.5723 c -0.046,0.1662 -0.086,0.3348 -0.1191,0.5058 0.01,-0.028 0.01,-0.056 0.016,-0.084 0.029,-0.1426 0.065,-0.2827 0.1035,-0.4218 z m 13.0527,0 c 0.039,0.1391 0.074,0.2792 0.1035,0.4218 0.01,0.028 0.01,0.056 0.016,0.084 -0.033,-0.171 -0.073,-0.3396 -0.1192,-0.5058 z m -13.1894,0.5996 c -0.032,0.1791 -0.057,0.3613 -0.074,0.5449 0,-0.018 0,-0.035 0,-0.053 0.017,-0.1659 0.041,-0.3298 0.07,-0.4921 z m 13.3262,0 c 0.029,0.1623 0.053,0.3262 0.07,0.4921 0,0.017 0,0.035 0,0.053 -0.017,-0.1836 -0.042,-0.3658 -0.074,-0.5449 z" />
    </g>
  </g>
</svg>
