<?xml version="1.0" encoding="UTF-8" standalone="no"?>
<!-- Created with Inkscape (http://www.inkscape.org/) -->

<svg
   version="1.1"
   id="svg182"
   width="63.605499"
   height="82.115234"
   viewBox="0 0 63.605499 82.115234"
   sodipodi:docname="icons.svg"
   inkscape:version="1.2.1 (9c6d41e410, 2022-07-14)"
   inkscape:export-filename="Capstone project Module 1\img\icons\ignite.svg"
   inkscape:export-xdpi="96"
   inkscape:export-ydpi="96"
   xmlns:inkscape="http://www.inkscape.org/namespaces/inkscape"
   xmlns:sodipodi="http://sodipodi.sourceforge.net/DTD/sodipodi-0.dtd"
   xmlns="http://www.w3.org/2000/svg"
   xmlns:svg="http://www.w3.org/2000/svg">
  <defs
     id="defs186" />
  <sodipodi:namedview
     id="namedview184"
     pagecolor="#ffffff"
     bordercolor="#000000"
     borderopacity="0.25"
     inkscape:showpageshadow="2"
     inkscape:pageopacity="0.0"
     inkscape:pagecheckerboard="0"
     inkscape:deskcolor="#d1d1d1"
     showgrid="false"
     inkscape:zoom="2.8284271"
     inkscape:cx="381.13055"
     inkscape:cy="1482.4494"
     inkscape:window-width="1920"
     inkscape:window-height="1017"
     inkscape:window-x="-8"
     inkscape:window-y="-8"
     inkscape:window-maximized="1"
     inkscape:current-layer="g188" />
  <g
     inkscape:groupmode="layer"
     inkscape:label="Image"
     id="g188"
     transform="translate(387.50327,-1946.3829)">
    <g
       id="g7771"
       transform="translate(-407.50462,-322.32233)">
      <rect
         style="fill:#ee523c;fill-opacity:1;stroke:none;stroke-width:1.5;stroke-linecap:round;stroke-linejoin:round;stroke-dasharray:none;paint-order:markers fill stroke"
         id="rect4800"
         width="60.104076"
         height="6.3639612"
         x="21.920311"
         y="2299.8647" />
      <path
         id="path4779"
         style="color:#000000;fill:#f6f6f6;fill-opacity:1;stroke-linecap:round;stroke-linejoin:round;paint-order:markers fill stroke"
         d="m 48.622444,2268.7053 c -4.923,0 -8.9472,4.0242 -8.9472,8.9472 0,4.9231 4.0242,8.9473 8.9472,8.9473 4.9231,0 8.9454,-4.0242 8.9454,-8.9473 0,-4.923 -4.0223,-8.9472 -8.9454,-8.9472 z m 0,3.0449 c 3.278,0 5.9024,2.6244 5.9024,5.9023 0,3.278 -2.6244,5.9024 -5.9024,5.9024 -3.2779,0 -5.9023,-2.6244 -5.9023,-5.9024 0,-3.2779 2.6244,-5.9023 5.9023,-5.9023 z m 14.8653,7.4707 c -0.8998,0.017 -1.7622,0.3378 -2.3047,1.0527 -0.62,0.817 -0.6327,1.8961 -0.2793,2.8711 0.3535,0.9749 1.064,1.9133 2.0508,2.6621 0.9867,0.7488 2.0812,1.1797 3.1152,1.2578 0.7079,0.053 1.4162,-0.07 1.9922,-0.416 l 5.6934,4.8613 -0.2832,6.6661 h -8.5938 c -2.3338,-6.2321 -8.7942,-10.6543 -16.2559,-10.6543 -7.4607,0 -13.9234,4.4222 -16.2578,10.6543 h -10.6133 a 1.750175,1.750175 0 0 0 -1.75,1.75 v 6.8945 a 1.750175,1.750175 0 0 0 1.75,1.75 h 2.3165 v 40.5 a 1.750175,1.750175 0 0 0 1.75,1.75 h 52.8554 a 1.750175,1.750175 0 0 0 1.75,-1.75 v -40.5 h 1.4336 a 1.750175,1.750175 0 0 0 1.75,-1.75 v -6.8945 a 1.750175,1.750175 0 0 0 -1.75,-1.75 h -6.8847 l 0.2968,-6.9688 a 0.750075,0.750075 0 0 0 -0.2617,-0.6016 l -5.9531,-5.082 c 0.3178,-0.7305 0.2695,-1.5844 -0.016,-2.3711 -0.3534,-0.9749 -1.0641,-1.9113 -2.0508,-2.6601 -0.9867,-0.7488 -2.0792,-1.1818 -3.1133,-1.2598 -0.1293,-0.01 -0.2582,-0.014 -0.3867,-0.012 z m 0.025,1.4726 c 0.08,-8e-4 0.1633,0 0.25,0.01 0.6932,0.052 1.5524,0.3718 2.334,0.9649 0.7816,0.5932 1.3196,1.3347 1.5566,1.9883 0.2369,0.6535 0.1814,1.1523 -0.066,1.4785 -0.2474,0.3262 -0.7131,0.5171 -1.4063,0.4648 -0.6932,-0.052 -1.5543,-0.3736 -2.3359,-0.9668 -0.7816,-0.5931 -1.3178,-1.3328 -1.5547,-1.9863 -0.2369,-0.6536 -0.1813,-1.1524 0.066,-1.4785 0.2166,-0.2854 0.5995,-0.467 1.1563,-0.4727 z m -14.8907,10.4825 c 5.4985,0 10.1307,2.8908 12.2676,7 h -24.5351 c 2.1369,-4.1092 6.7693,-7 12.2675,-7 z m -25.1211,10.5 h 56.6055 v 3.3945 h -56.6055 z m 4.0665,6.8945 h 49.3554 v 38.75 h -49.3554 z m 11.5273,5.3496 a 0.750075,0.750075 0 0 0 -0.75,0.75 v 4.8125 a 0.750075,0.750075 0 0 0 0.75,0.75 h 25.7504 a 0.750075,0.750075 0 0 0 0.75,-0.75 v -4.8125 a 0.750075,0.750075 0 0 0 -0.75,-0.75 z m 0.75,1.5 h 24.25 v 3.3125 h -24.2496 z" />
    </g>
  </g>
</svg>
