<?xml version="1.0" encoding="UTF-8" standalone="no"?>
<!-- Created with Inkscape (http://www.inkscape.org/) -->

<svg
   version="1.1"
   id="svg182"
   width="83.447067"
   height="70.661621"
   viewBox="0 0 83.447067 70.661621"
   sodipodi:docname="icons.svg"
   inkscape:version="1.2.1 (9c6d41e410, 2022-07-14)"
   inkscape:export-filename="Capstone project Module 1\img\icons\ignite.svg"
   inkscape:export-xdpi="96"
   inkscape:export-ydpi="96"
   xmlns:inkscape="http://www.inkscape.org/namespaces/inkscape"
   xmlns:sodipodi="http://sodipodi.sourceforge.net/DTD/sodipodi-0.dtd"
   xmlns="http://www.w3.org/2000/svg"
   xmlns:svg="http://www.w3.org/2000/svg">
  <defs
     id="defs186" />
  <sodipodi:namedview
     id="namedview184"
     pagecolor="#ffffff"
     bordercolor="#000000"
     borderopacity="0.25"
     inkscape:showpageshadow="2"
     inkscape:pageopacity="0.0"
     inkscape:pagecheckerboard="0"
     inkscape:deskcolor="#d1d1d1"
     showgrid="false"
     inkscape:zoom="2.8284271"
     inkscape:cx="381.13055"
     inkscape:cy="1482.4494"
     inkscape:window-width="1920"
     inkscape:window-height="1017"
     inkscape:window-x="-8"
     inkscape:window-y="-8"
     inkscape:window-maximized="1"
     inkscape:current-layer="g188" />
  <g
     inkscape:groupmode="layer"
     inkscape:label="Image"
     id="g188"
     transform="translate(143.16211,-1965.6028)">
    <g
       id="g8922"
       transform="translate(55,-102.5)">
      <rect
         style="fill:#ee523c;fill-opacity:1;stroke:none;stroke-width:1.5;stroke-linecap:round;stroke-linejoin:round;stroke-dasharray:none;paint-order:markers fill stroke"
         id="rect8701"
         width="64.5"
         height="6.25"
         x="-196.125"
         y="2116.375" />
      <path
         id="rect3848"
         style="color:#000000;fill:#f6f6f6;fill-opacity:1;stroke-linecap:round;stroke-linejoin:round;paint-order:markers fill stroke"
         d="m -191.57227,2068.1035 a 1.4644064,1.4644064 0 0 0 -1.46484,1.4649 v 45.4101 h -3.22656 a 1.8981898,1.8981898 0 0 0 -1.89844,1.8985 v 6.375 a 1.8981898,1.8981898 0 0 0 1.89844,1.8984 h 19.58594 l -6.21485,10.7676 a 1.898,1.898 0 0 0 0.69532,2.5918 1.898,1.898 0 0 0 2.59179,-0.6953 l 3.38281,-5.8575 h 25.9336 l 3.38086,5.8575 a 1.898,1.898 0 0 0 2.59375,0.6953 1.898,1.898 0 0 0 0.69531,-2.5918 l -3.89258,-6.7422 a 1.898,1.898 0 0 0 -0.01,-0.01 l -2.31836,-4.0156 h 19.07226 a 1.8981898,1.8981898 0 0 0 1.89844,-1.8984 v -6.375 a 1.8981898,1.8981898 0 0 0 -1.89844,-1.8985 h -3.22656 v -6.1836 l 10.6543,10.6543 a 0.8980898,0.8980898 0 0 0 0.0391,0.021 0.8980898,0.8980898 0 0 0 0.16797,0.2051 c 0.9231,0.8061 2.10643,1.2528 3.33203,1.2558 2.798,0 5.08584,-2.2881 5.08594,-5.0859 -1e-4,-1.3049 -0.50265,-2.5607 -1.40235,-3.5059 a 0.8980898,0.8980898 0 0 0 -0.20117,-0.1562 l -17.67773,-17.6777 v -24.9375 a 1.4644064,1.4644064 0 0 0 -1.46485,-1.4649 z m 1.46485,2.9297 h 53.1875 v 20.543 l -2.86524,-2.8653 a 0.8980898,0.8980898 0 0 0 -0.11718,-0.1 c 0,0 -2.50771,-1.7539 -5.15821,-3.0468 -1.3252,-0.6464 -2.67185,-1.1942 -3.90625,-1.3282 -0.6173,-0.067 -1.23624,-0.038 -1.80664,0.2598 -0.5703,0.2982 -0.99564,0.9126 -1.11914,1.5977 -0.4298,2.3831 0.94239,4.7623 2.27149,6.6132 1.329,1.8509 2.74218,3.1973 2.74218,3.1973 l 9.96289,9.9629 v 7.8555 h -53.1875 z m 40.66211,14.9707 c 0.084,10e-5 0.17719,-8e-4 0.27929,0.016 0.8163,0.089 2.07521,0.5528 3.3125,1.1563 2.0051,0.9781 3.30523,1.8971 3.98633,2.3554 l -1.58984,1.6075 -2.76172,2.7929 c -0.4032,-0.4069 -1.00852,-0.9634 -1.94922,-2.2734 -1.2178,-1.6958 -2.22059,-3.8168 -1.96289,-5.2461 0.048,-0.268 0.083,-0.2724 0.18555,-0.3262 0.077,-0.04 0.2475,-0.082 0.5,-0.082 z m 9.02929,4.6152 3.32032,3.3204 -4.60547,4.6054 -3.29688,-3.2969 2.38086,-2.4042 z m -23.59765,0.7344 c -1.8542,0 -3.39844,1.5443 -3.39844,3.3985 0,1.8542 1.54424,3.3984 3.39844,3.3984 1.8542,0 3.39844,-1.5442 3.39844,-3.3984 0,-1.8542 -1.54424,-3.3985 -3.39844,-3.3985 z m 28.21094,3.7715 1.8125,1.9199 15.89453,15.8946 -4.60547,4.6054 -11.28906,-11.289 -2.92969,-2.9297 -3.51172,-3.5117 3.51172,-3.5118 z m 18.77343,19.4121 c 0.2033,0.4333 0.52344,0.8212 0.52344,1.3086 0,1.8265 -1.46071,3.288 -3.28711,3.2891 -0.4418,0 -0.80087,-0.2816 -1.20117,-0.4512 z m -77.33593,4.2383 h 61.70312 v 2.5781 h -61.70312 z m 22.07226,6.375 h 18.07422 l 1.73633,3.0098 h -21.54883 z" />
      <path
         style="color:#000000;fill:#ee523c;fill-opacity:1;stroke-linecap:round;stroke-linejoin:round;paint-order:markers fill stroke"
         d="m -154,2091.3516 c -1.8542,0 -3.3984,1.5442 -3.3984,3.3984 0,1.8542 1.5442,3.3984 3.3984,3.3984 1.8542,0 3.3984,-1.5442 3.3984,-3.3984 0,-1.8542 -1.5442,-3.3984 -3.3984,-3.3984 z"
         id="path8767" />
      <path
         style="color:#000000;fill:#ee523c;fill-opacity:1;stroke-linecap:round;stroke-linejoin:round;paint-order:markers fill stroke"
         d="m -174,2091.3516 c -1.8542,0 -3.3984,1.5442 -3.3984,3.3984 0,1.8542 1.5442,3.3984 3.3984,3.3984 1.8542,0 3.3984,-1.5442 3.3984,-3.3984 0,-1.8542 -1.5442,-3.3984 -3.3984,-3.3984 z"
         id="path8763" />
    </g>
  </g>
</svg>
