<?xml version="1.0" encoding="UTF-8" standalone="no"?>
<svg
   viewBox="0 0 272 92"
   width="272"
   height="92"
   version="1.1"
   id="svg9329"
   sodipodi:docname="google.svg"
   inkscape:version="1.2.1 (9c6d41e410, 2022-07-14)"
   xmlns:inkscape="http://www.inkscape.org/namespaces/inkscape"
   xmlns:sodipodi="http://sodipodi.sourceforge.net/DTD/sodipodi-0.dtd"
   xmlns="http://www.w3.org/2000/svg"
   xmlns:svg="http://www.w3.org/2000/svg">
  <defs
     id="defs9333" />
  <sodipodi:namedview
     id="namedview9331"
     pagecolor="#ffffff"
     bordercolor="#000000"
     borderopacity="0.25"
     inkscape:showpageshadow="2"
     inkscape:pageopacity="0.0"
     inkscape:pagecheckerboard="0"
     inkscape:deskcolor="#d1d1d1"
     showgrid="false"
     inkscape:zoom="3.1455853"
     inkscape:cx="143.05764"
     inkscape:cy="26.704092"
     inkscape:window-width="1920"
     inkscape:window-height="1017"
     inkscape:window-x="-8"
     inkscape:window-y="-8"
     inkscape:window-maximized="1"
     inkscape:current-layer="svg9329" />
  <path
     id="path9317"
     d="M 35.300781 0.47070312 C 16.3208 0.47070312 0.359375 15.930175 0.359375 34.910156 C 0.359375 53.890137 16.3208 69.349609 35.300781 69.349609 C 45.540771 69.349609 53.270319 65.989447 59.320312 59.689453 C 65.540306 53.469459 67.470703 44.73968 67.470703 37.679688 C 67.470703 35.57969 67.31 33.639998 67 32 L 35.289062 32 L 35.289062 41.410156 L 57.779297 41.400391 C 57.089298 46.590385 55.339685 50.390784 52.679688 53.050781 C 49.399691 56.330778 44.279054 59.939453 35.289062 59.939453 C 21.429076 59.939453 10.589844 48.770142 10.589844 34.910156 C 10.589844 21.05017 21.429076 9.8808594 35.289062 9.8808594 C 42.769055 9.8808594 48.22977 12.819613 52.259766 16.599609 L 58.900391 9.9609375 C 53.280396 4.5909429 45.800771 0.47070312 35.300781 0.47070312 z M 215.5 3 L 215.5 68 L 225 68 L 225 3 L 215.5 3 z M 250.00977 24.990234 C 238.57978 24.990234 229.08984 33.979935 229.08984 47.169922 C 229.08984 59.609909 238.49962 69.349609 251.09961 69.349609 C 261.2596 69.349609 267.14008 63.129528 269.58008 59.519531 L 262.01953 54.480469 C 259.49953 58.180465 256.0596 60.619141 251.09961 60.619141 C 246.14961 60.619141 242.61961 58.350386 240.34961 53.900391 L 270 41.619141 L 268.99023 39.099609 C 267.15024 34.149614 261.51975 24.990234 250.00977 24.990234 z M 93.5 25 C 81.240012 25 71.25 34.3197 71.25 47.179688 C 71.25 59.949675 81.240012 69.359375 93.5 69.359375 C 105.75999 69.359375 115.75 59.949675 115.75 47.179688 C 115.75 34.3197 105.75999 25 93.5 25 z M 141.5 25 C 129.24001 25 119.25 34.3297 119.25 47.179688 C 119.25 59.949675 129.24001 69.359375 141.5 69.359375 C 153.75999 69.359375 163.75 59.949675 163.75 47.179688 C 163.75 34.3197 153.75999 25 141.5 25 z M 188.48047 25 C 177.39048 25 167.23047 34.739778 167.23047 47.259766 C 167.23047 59.689753 177.39048 69.349609 188.48047 69.349609 C 193.78046 69.349609 197.98016 67.000544 200.16016 64.310547 L 200.5 64.310547 L 200.5 67.5 C 200.5 75.989992 195.97015 80.5 188.66016 80.5 C 182.70016 80.5 179.00023 76.240856 177.49023 72.630859 L 169.00977 76.160156 C 171.44976 82.04015 177.91993 89.230469 188.66992 89.230469 C 200.08991 89.230469 209.75 82.54014 209.75 66.160156 L 209.75 26.349609 L 200.5 26.349609 L 200.5 29.960938 L 200.16016 29.960938 C 197.97016 27.35094 193.77046 25 188.48047 25 z M 250.33984 33.570312 C 254.19984 33.570312 257.48031 35.499534 258.57031 38.269531 L 238.75 46.5 C 238.5 37.940009 245.38985 33.570312 250.33984 33.570312 z M 93.5 33.740234 C 100.21999 33.740234 106.00977 39.199695 106.00977 47.179688 C 106.00977 55.06968 100.21999 60.619141 93.5 60.619141 C 86.780007 60.619141 80.990234 55.07968 80.990234 47.179688 C 80.990234 39.199695 86.780007 33.740234 93.5 33.740234 z M 141.5 33.740234 C 148.21999 33.740234 154.00977 39.199695 154.00977 47.179688 C 154.00977 55.06968 148.21999 60.619141 141.5 60.619141 C 134.78001 60.619141 128.99023 55.07968 128.99023 47.179688 C 128.99023 39.199695 134.78001 33.740234 141.5 33.740234 z M 189.34961 33.740234 C 195.9796 33.740234 201.18945 39.449773 201.18945 47.259766 C 201.18945 54.989758 195.9796 60.619141 189.34961 60.619141 C 182.62962 60.619141 177 54.989758 177 47.259766 C 177 39.449773 182.62962 33.740234 189.34961 33.740234 z "
     style="fill:#b8b8b8;fill-opacity:1" />
</svg>
