<?xml version="1.0" encoding="UTF-8" standalone="no"?>
<!-- Generator: Adobe Illustrator 19.0.0, SVG Export Plug-In . SVG Version: 6.00 Build 0)  -->

<svg
   version="1.1"
   id="圖層_1"
   x="0px"
   y="0px"
   width="521.0783691px"
   height="100px"
   viewBox="0 0 521.0783691 100"
   style="enable-background:new 0 0 521.0783691 100;"
   xml:space="preserve"
   sodipodi:docname="naver.svg"
   inkscape:version="1.2.1 (9c6d41e410, 2022-07-14)"
   xmlns:inkscape="http://www.inkscape.org/namespaces/inkscape"
   xmlns:sodipodi="http://sodipodi.sourceforge.net/DTD/sodipodi-0.dtd"
   xmlns="http://www.w3.org/2000/svg"
   xmlns:svg="http://www.w3.org/2000/svg"><defs
   id="defs9198" /><sodipodi:namedview
   id="namedview9196"
   pagecolor="#ffffff"
   bordercolor="#000000"
   borderopacity="0.25"
   inkscape:showpageshadow="2"
   inkscape:pageopacity="0.0"
   inkscape:pagecheckerboard="0"
   inkscape:deskcolor="#d1d1d1"
   showgrid="false"
   inkscape:zoom="2.3221075"
   inkscape:cx="231.68608"
   inkscape:cy="49.954621"
   inkscape:window-width="1920"
   inkscape:window-height="1017"
   inkscape:window-x="-8"
   inkscape:window-y="-8"
   inkscape:window-maximized="1"
   inkscape:current-layer="圖層_1" />
<style
   type="text/css"
   id="style9181">
	.st0{fill:#03CF5D;}
</style>
<g
   id="g9193"
   style="fill:#b8b8b8;fill-opacity:1">
	<path
   class="st0"
   d="M150,0l-39.2157059,100h33.3333054l4.7360992-13.2352982h37.5867004L191.1764984,100h33.3332977L185.2940979,0   H150z M156.4685974,62.7450981L167.64711,31.5069008l11.1783905,31.2381973H156.4685974z"
   id="path9183"
   style="fill:#b8b8b8;fill-opacity:1" />
	<polygon
   class="st0"
   points="363.2352905,62.0098 408.8234863,62.0098 408.8234863,37.9902 363.2352905,37.9902    363.2352905,24.5098 409.3136902,24.5098 409.3136902,0 331.3724976,0 331.3724976,100 410.2940979,100 410.2940979,75.4901962    363.2352905,75.4901962  "
   id="polygon9185"
   style="fill:#b8b8b8;fill-opacity:1" />
	<polygon
   class="st0"
   points="264.2156982,65.7534027 240.6862946,0 207.35289,0 246.5685883,100 281.8627014,100 321.0783997,0    287.7451172,0  "
   id="polygon9187"
   style="fill:#b8b8b8;fill-opacity:1" />
	<polygon
   class="st0"
   points="68.1371994,53.5211983 30.8822994,0 0,0 0,100 32.3528976,100 32.3528976,46.4789009 69.6077957,100    100.4901962,100 100.4901962,0 68.1371994,0  "
   id="polygon9189"
   style="fill:#b8b8b8;fill-opacity:1" />
	<path
   class="st0"
   d="M495.7964783,65.694397l3.0326233-1.2691956   c11.6220093-4.8646011,17.5325928-15.3901024,17.5325928-28.7482033c0-12.6320972-4.6071167-21.9770985-13.6939087-27.7756977   C494.2207947,2.5106001,483.2662964,0,468.1940002,0h-42.213623v100h31.3724976V72.0588989h11.2745056L487.7451172,100h33.333252   L495.7964783,65.694397z M474.0195923,46.5686989h-17.1568909V25.4902h17.1568909   c5.8205872,0,10.5391846,4.7185993,10.5391846,10.5391998C484.5587769,41.8501015,479.8401794,46.5686989,474.0195923,46.5686989z"
   id="path9191"
   style="fill:#b8b8b8;fill-opacity:1" />
</g>
</svg>
